# xmcd
#
# Track frame offsets:
#	150
#	23298
#	39893
#	55574
#	79123
#	96348
#	110792
#	135104
#	147167
#	163628
#	180703
#	193299
#	219112
#	231189
#
# Disc length: 3298 seconds
# Revision: 0
# Processed by: cddbd v1.5.2PL0 Copyright (c) Steve Scherf et al.
# Submitted via: dBpowerAMP V12.0
#
DISCID=ad0ce00e
DTITLE=Various Artist - Classicos  Live Talentos
DYEAR=2016
DGENRE=Sertanejo
TTITLE0=Bruno and Marrone e Chitaozinho and Xororo - Dryland - Pagina de amigos
TTITLE1=Bruno and Marrone - Choram as rosas (Lloran las tosas)
TTITLE2=Bruno and Marrone - Vidro fume
TTITLE3=Chitaozinho and Xororo - Sinonimos
TTITLE4=Chitaozinho and Xororo - Se Deus me ouvisse
TTITLE5=Bruno and Marrone e Chitaozinho and Xororo - Voce me trocou
TTITLE6=Bruno and Marrone e Chitaozinho and Xororo - Va pro inferno com seu amor - Galopeira (Galopera)
TTITLE7=Bruno and Marrone - Isso ce nao conta
TTITLE8=Bruno and Marrone e Chitaozinho and Xororo - Palavras sao palavras
TTITLE9=Bruno and Marrone e Chitaozinho and Xororo - Eu vou te esquecer
TTITLE10=Chitaozinho and Xororo - Fio de cabelo
TTITLE11=Chitaozinho and Xororo - Evidencias
TTITLE12=Bruno and Marrone e Chitaozinho and Xororo - Dormi na praca
TTITLE13=Bruno and Marrone e Chitaozinho and Xororo - Boate azul - Ainda ontem chorei de saudade
EXTD=
EXTT0=
EXTT1=
EXTT2=
EXTT3=
EXTT4=
EXTT5=
EXTT6=
EXTT7=
EXTT8=
EXTT9=
EXTT10=
EXTT11=
EXTT12=
EXTT13=
PLAYORDER=
